<?xml version="1.0" encoding="utf-8"?>
<!-- Generator: Adobe Illustrator 19.0.0, SVG Export Plug-In . SVG Version: 6.00 Build 0)  -->
<svg version="1.1" id="Layer_1" xmlns="http://www.w3.org/2000/svg" xmlns:xlink="http://www.w3.org/1999/xlink" x="0px" y="0px"
	 viewBox="-398 294.3 305 227" style="enable-background:new -398 294.3 305 227;" xml:space="preserve">
<style type="text/css">
	.st0{fill:#177BC0;}
	.st1{fill:#024774;}
	.st2{fill:#044A79;}
	.st3{fill:url(#SVGID_1_);}
	.st4{fill:#0A74BB;}
	.st5{fill:#FFFFFF;}
	.st6{fill:url(#SVGID_2_);}
	.st7{fill:url(#SVGID_3_);}
	.st8{fill:#034775;}
	.st9{fill:#034875;}
	.st10{enable-background:new    ;}
	.st11{clip-path:url(#SVGID_5_);enable-background:new    ;}
	.st12{fill:#044977;}
	.st13{clip-path:url(#SVGID_7_);enable-background:new    ;}
	.st14{fill:#084F80;}
	.st15{fill:#074D7D;}
	.st16{fill:#054B7A;}
	.st17{fill:url(#SVGID_8_);}
	.st18{clip-path:url(#SVGID_10_);enable-background:new    ;}
	.st19{clip-path:url(#SVGID_12_);enable-background:new    ;}
	.st20{fill:url(#SVGID_13_);}
	.st21{clip-path:url(#SVGID_15_);enable-background:new    ;}
	.st22{clip-path:url(#SVGID_19_);enable-background:new    ;}
	.st23{clip-path:url(#SVGID_21_);enable-background:new    ;}
</style>
<g>
	<g>
		<path d="M-385.8,476.9l-1.1-4h-4l-1.1,4h-2.9l4.4-14.6h2.7l4.4,14.6H-385.8z M-388.2,468.7c0-0.2-0.2-0.4-0.2-0.9
			c0-0.4-0.2-0.4-0.2-1.1c0-0.2-0.2-0.4-0.2-0.9c0-0.4,0-0.4-0.2-0.4c0,0.2,0,0.2-0.2,0.4c0,0.2,0,0.4-0.2,0.9
			c0,0.2-0.2,0.4-0.2,0.9c0,0.2-0.2,0.4-0.2,0.9l-0.9,2.4h3.8L-388.2,468.7z"/>
		<path d="M-374.1,474c0,1.1-0.2,1.8-1.1,2.4c-0.9,0.4-1.8,0.9-3.1,0.9c-0.9,0-1.5,0-2.4-0.2c-0.9-0.2-1.3-0.4-2.2-0.9l1.1-1.5
			c1.3,0.4,2.4,1.1,3.1,1.1c0.4,0,1.1,0,1.3-0.2c0.2-0.2,0.4-0.4,0.4-0.9c0-0.2,0-0.2-0.2-0.4c0-0.2-0.2-0.2-0.4-0.4
			c-0.2-0.2-0.4-0.2-0.9-0.4c-0.2-0.2-0.9-0.2-1.3-0.4s-0.9-0.2-1.3-0.4c-0.2-0.2-0.9-0.4-0.9-0.9c-0.2-0.2-0.4-0.4-0.4-0.9
			c0-0.9,0-1.1,0-1.5c0-1.1,0.2-1.5,1.1-2.2c0.9-0.4,1.5-0.9,2.9-0.9c0.9,0,1.3,0,2.2,0.2c0.9,0.2,1.3,0.4,1.8,0.9l-1.1,1.5
			c-0.4-0.2-1.1-0.4-1.3-0.4c-0.4-0.2-1.1-0.2-1.3-0.2c-0.4,0-0.9,0-1.1,0.2c-0.4,0.2-0.4,0.4-0.4,0.9c0,0.4,0,0.2,0,0.4
			c0,0.2,0.2,0.2,0.2,0.4c0.2,0.2,0.4,0.2,0.9,0.4c0.2,0.2,0.9,0.2,1.1,0.4c0.4,0.2,1.1,0.4,1.3,0.9c0.4,0.2,0.9,0.4,1.1,0.9
			c0.2,0.2,0.4,0.4,0.4,0.9C-374.3,473.1-374.1,473.4-374.1,474z"/>
		<path d="M-369,480.9h-2.7l1.5-4l-4-10.8h2.7l1.5,5.3c0,0.2,0.2,0.4,0.2,0.9c0,0.2,0.2,0.4,0.2,0.9c0,0.2,0.2,0.4,0.2,0.9
			c0,0.2,0,0.4,0.2,0.4c0-0.2,0-0.2,0.2-0.4c0-0.2,0.2-0.4,0.2-0.9c0-0.4,0.2-0.4,0.2-0.9c0-0.4,0.2-0.4,0.2-0.9l1.5-5.3h2.7
			L-369,480.9z"/>
		<path d="M-355.9,476.9v-6.9c0-0.9,0-1.5-0.2-1.8c-0.2-0.2-0.9-0.4-1.3-0.4c-0.4,0-0.9,0-1.1,0.2s-0.9,0.4-0.9,0.9v8.2h-2.7v-10.8
			h2.7v0.9c0.2-0.2,0.9-0.4,1.1-0.9c0.4-0.2,1.1-0.2,1.5-0.2c1.3,0,2.4,0.2,2.9,1.1c0.4,0.9,0.9,1.5,0.9,3.1v7.1h-2.9L-355.9,476.9
			L-355.9,476.9z"/>
		<path d="M-344.7,476.7c-0.4,0.2-1.3,0.4-2.4,0.4c-1.5,0-2.7-0.4-3.5-1.3c-0.9-1.1-1.3-2.4-1.3-4.2s0.4-3.5,1.3-4.2
			c0.9-1.1,2.2-1.3,3.8-1.3c0.4,0,1.1,0,1.3,0.2c0.4,0,0.9,0.2,1.1,0.4c0.2,0.2,0.4,0.2,0.9,0.4c0.2,0.2,0.4,0.4,0.9,0.9l-1.8,1.3
			c-0.2-0.4-0.9-0.9-1.1-1.1c-0.2-0.2-0.9-0.2-1.1-0.2c-0.9,0-1.3,0.2-1.8,1.1c-0.2,0.9-0.4,1.5-0.4,2.9c0,1.1,0.2,2.2,0.4,2.7
			c0.2,0.9,1.1,1.1,1.8,1.1c0.4,0,0.9,0,1.1-0.2c0.2-0.2,0.9-0.4,1.1-1.1l1.8,1.3C-343.6,475.8-344,476.2-344.7,476.7z"/>
		<path d="M-335.4,476.9v-6.9c0-0.9,0-1.5-0.2-1.8c-0.2-0.2-0.9-0.4-1.3-0.4c-0.4,0-0.9,0-1.1,0.2s-0.9,0.4-0.9,0.9v8.2h-2.7v-14.4
			l2.7-1.1v5.1c0.2-0.2,0.9-0.4,1.1-0.9c0.4-0.2,1.1-0.2,1.5-0.2c1.3,0,2.4,0.2,2.9,1.1c0.4,0.9,0.9,1.5,0.9,3.1v7.1H-335.4z"/>
		<path d="M-324.6,468.1c-0.2,0-0.4-0.2-0.9-0.2c-0.2,0-0.4,0-1.1,0c-0.2,0-0.9,0-1.1,0.2c-0.2,0-0.9,0.2-1.1,0.9v8.2h-2.7v-11h2.7
			v0.9c0.2-0.2,0.4-0.4,1.1-0.9c0.4-0.2,0.9-0.2,1.3-0.2c0.4,0,0.9,0,1.1,0s0.4,0.2,0.9,0.2L-324.6,468.1z"/>
		<path d="M-314,471.4c0,1.8-0.4,3.5-1.3,4.2c-1.1,1.1-2.2,1.3-3.8,1.3c-0.9,0-1.3,0-2.2-0.2c-0.4-0.2-1.1-0.4-1.5-1.1
			c-0.4-0.4-0.9-1.1-1.1-1.8c-0.2-0.9-0.2-1.5-0.2-2.7c0-1.8,0.4-3.5,1.3-4.2c0.9-1.1,2.2-1.3,3.8-1.3c0.9,0,1.3,0,2.2,0.2
			c0.4,0.2,1.1,0.4,1.5,1.1c0.4,0.4,0.9,1.1,1.1,1.8C-314,469.4-314,470.5-314,471.4z M-316.6,471.4c0-1.3-0.2-2.2-0.4-2.9
			c-0.4-0.4-1.1-1.1-1.8-1.1c-1.5,0-2.4,1.3-2.4,3.8c0,2.7,0.9,3.8,2.4,3.8c0.9,0,1.3-0.2,1.8-1.1
			C-316.6,473.4-316.6,472.7-316.6,471.4z"/>
		<path d="M-306,476.9v-6.9c0-0.9,0-1.5-0.2-1.8c-0.2-0.2-0.9-0.4-1.3-0.4s-0.9,0-1.1,0.2c-0.2,0.2-0.9,0.4-0.9,0.9v8.2h-2.7v-10.8
			h2.7v0.9c0.2-0.2,0.9-0.4,1.1-0.9c0.4-0.2,1.1-0.2,1.5-0.2c1.3,0,2.4,0.2,2.9,1.1c0.4,0.9,0.9,1.5,0.9,3.1v7.1h-2.9L-306,476.9
			L-306,476.9z"/>
		<path d="M-292.1,471.4c0,1.8-0.4,3.5-1.3,4.2c-1.1,1.1-2.2,1.3-3.8,1.3c-0.9,0-1.3,0-2.2-0.2c-0.4-0.2-1.1-0.4-1.5-1.1
			c-0.4-0.4-0.9-1.1-1.1-1.8c-0.2-0.9-0.2-1.5-0.2-2.7c0-1.8,0.4-3.5,1.3-4.2c0.9-1.1,2.2-1.3,3.8-1.3c0.9,0,1.3,0,2.2,0.2
			c0.4,0.2,1.1,0.4,1.5,1.1c0.4,0.7,0.9,1.1,1.1,1.8C-292.1,469.4-292.1,470.5-292.1,471.4z M-294.5,471.4c0-1.3-0.2-2.2-0.4-2.9
			c-0.4-0.4-1.1-1.1-1.8-1.1c-1.5,0-2.4,1.3-2.4,3.8c0,2.7,0.9,3.8,2.4,3.8c0.9,0,1.3-0.2,1.8-1.1
			C-294.7,473.4-294.5,472.7-294.5,471.4z"/>
		<path d="M-284.1,476.9V476c-0.2,0.2-0.9,0.4-1.1,0.9c-0.4,0.2-1.1,0.2-1.5,0.2c-1.3,0-2.4-0.2-2.9-1.1c-0.4-0.9-0.9-1.5-0.9-3.1
			v-6.9h2.7v6.9c0,0.9,0,1.5,0.2,1.8c0.2,0.2,0.9,0.4,1.3,0.4c0.4,0,0.9,0,1.1-0.2c0.2-0.2,0.9-0.4,0.9-0.9v-8.2h2.7v11H-284.1
			L-284.1,476.9z"/>
		<path d="M-271.7,474c0,1.1-0.2,1.8-1.1,2.4c-0.9,0.4-1.8,0.9-3.1,0.9c-0.9,0-1.5,0-2.4-0.2c-0.9-0.2-1.3-0.4-2.2-0.9l1.1-1.5
			c1.3,0.4,2.4,1.1,3.1,1.1c0.4,0,1.1,0,1.3-0.2c0.2-0.2,0.4-0.4,0.4-0.9c0-0.2,0-0.2-0.2-0.4c0-0.2-0.2-0.2-0.4-0.4
			s-0.4-0.2-0.9-0.4c-0.4-0.2-0.9-0.2-1.3-0.4c-0.4-0.2-0.9-0.2-1.3-0.4c-0.2-0.2-0.9-0.4-0.9-0.9c-0.2-0.2-0.4-0.4-0.4-0.9
			c-0.2-0.2-0.2-0.9-0.2-1.1c0-1.1,0.2-1.5,1.1-2.2c0.9-0.4,1.5-0.9,2.9-0.9c0.9,0,1.3,0,2.2,0.2s1.3,0.4,1.8,0.9l-1.1,1.5
			c-0.4-0.2-1.1-0.4-1.3-0.4c-0.4-0.2-1.1-0.2-1.3-0.2c-0.4,0-0.9,0-1.1,0.2c-0.2,0.2-0.2,0.4-0.2,0.9c0,0.4,0,0.2,0,0.4
			s0.2,0.2,0.2,0.4c0.2,0.2,0.4,0.2,0.9,0.4c0.2,0.2,0.9,0.2,1.1,0.4c0.4,0.2,1.1,0.4,1.3,0.9c0.4,0.2,0.9,0.4,1.1,0.9
			c0.2,0.2,0.4,0.4,0.4,0.9C-271.7,473.1-271.7,473.4-271.7,474z"/>
		<path d="M-258.3,476c-0.9,0.9-1.8,1.1-3.8,1.1c-0.9,0-1.5,0-2.2-0.2s-1.1-0.4-1.3-0.9c-0.2-0.2-0.4-0.9-0.9-1.3
			c-0.2-0.4-0.2-1.1-0.4-1.5l2.4-0.4c0.2,0.9,0.4,1.3,0.9,1.8c0.2,0.2,0.9,0.4,1.5,0.4c0.7,0,1.3-0.2,1.5-0.4
			c0.2-0.4,0.4-1.1,0.4-1.5v-10.6h2.7v10.6C-257.2,474.2-257.4,475.4-258.3,476z"/>
		<path d="M-249,476.9V476c-0.2,0.4-0.9,0.4-1.1,0.9c-0.4,0.2-1.1,0.2-1.5,0.2s-1.1,0-1.5-0.2s-0.9-0.2-1.3-0.9
			c-0.2-0.2-0.4-0.9-0.9-1.1c-0.2-0.4-0.2-1.1-0.2-1.5c0-1.3,0.4-2.2,1.3-2.7c0.9-0.4,1.8-0.9,3.1-0.9c0.4,0,0.9,0,1.1,0
			c0.2,0,0.9,0.2,1.1,0.2v-1.1c0-0.4-0.2-1.1-0.4-1.1c-0.2-0.2-0.9-0.2-1.3-0.2c-0.4,0-0.9,0-1.3,0.2c-0.4,0-0.9,0.2-1.3,0.4
			l-1.1-1.5c0.4-0.2,1.3-0.4,2.2-0.9c0.9-0.2,1.3-0.2,2.2-0.2s1.3,0,1.8,0.2c0.4,0,1.1,0.2,1.3,0.4c0.2,0.2,0.4,0.4,0.9,1.1
			c0.2,0.4,0.2,1.1,0.2,1.5v8h-2.9v0H-249z M-249,472c-0.2-0.2-0.4-0.2-0.9-0.2c-0.2,0-0.9,0-1.1,0c-0.4,0-1.1,0.2-1.5,0.4
			c-0.2,0.2-0.4,0.9-0.4,1.3c0,0.4,0.2,1.1,0.4,1.3c0.2,0.2,0.9,0.4,1.3,0.4c1.1,0,1.8-0.2,2.4-1.1v-2.4h-0.2V472z"/>
		<path d="M-238.8,476.9h-3.1l-3.5-10.8h2.7l1.8,5.7c0,0.2,0,0.4,0.2,0.9c0,0.2,0.2,0.4,0.2,0.9c0,0.2,0.2,0.4,0.2,0.9
			c0,0.2,0,0.4,0.2,0.4c0,0,0-0.2,0-0.4c0-0.2,0-0.4,0.2-0.9c0-0.2,0.2-0.4,0.2-0.9c0-0.2,0-0.4,0.2-0.9l1.5-5.7h2.7L-238.8,476.9z"
			/>
		<path d="M-228.9,476.9V476c-0.2,0.2-0.9,0.4-1.3,0.9c-0.4,0.2-1.1,0.2-1.5,0.2s-1.1,0-1.5-0.2s-0.9-0.2-1.3-0.9
			c-0.2-0.2-0.4-0.9-0.9-1.1c-0.2-0.4-0.2-1.1-0.2-1.5c0-1.3,0.4-2.2,1.3-2.7c0.9-0.4,1.8-0.9,3.1-0.9c0.4,0,0.9,0,1.1,0
			c0.2,0,0.9,0.2,1.1,0.2v-1.1c0-0.4-0.2-1.1-0.4-1.1c-0.2-0.2-0.9-0.2-1.3-0.2s-0.9,0-1.3,0.2c-0.4,0-0.9,0.2-1.3,0.4l-1.1-1.5
			c0.4-0.2,1.3-0.4,2.2-0.9c0.9-0.2,1.3-0.2,2.2-0.2s1.3,0,1.8,0.2c0.4,0,1.1,0.2,1.3,0.4c0.2,0.2,0.4,0.4,0.9,1.1
			c0.2,0.4,0.2,1.1,0.2,1.5v8h-2.7v0H-228.9z M-228.9,472c-0.2-0.2-0.4-0.2-0.9-0.2c-0.2,0-0.9,0-1.1,0c-0.4,0-1.1,0.2-1.5,0.4
			c-0.2,0.2-0.4,0.9-0.4,1.3c0,0.4,0.2,1.1,0.4,1.3c0.2,0.2,0.9,0.4,1.3,0.4c1.1,0,1.8-0.2,2.4-1.1v-2.4h-0.2V472z"/>
		<path d="M-216.5,474c0,1.1-0.2,1.8-1.1,2.4c-0.9,0.4-1.8,0.9-3.1,0.9c-0.9,0-1.5,0-2.4-0.2s-1.3-0.4-2.2-0.9l1.1-1.5
			c1.3,0.4,2.4,1.1,3.1,1.1c0.4,0,1.1,0,1.3-0.2c0.2-0.2,0.4-0.4,0.4-0.9c0-0.2,0-0.2-0.2-0.4c0-0.2-0.2-0.2-0.4-0.4
			c-0.2-0.2-0.4-0.2-0.9-0.4c-0.2-0.2-0.9-0.2-1.3-0.4c-0.4-0.2-0.9-0.2-1.3-0.4c-0.2-0.2-0.9-0.4-0.9-0.9c-0.2-0.2-0.4-0.4-0.4-0.9
			c-0.2-0.2-0.2-0.9-0.2-1.1c0-1.1,0.2-1.5,1.1-2.2c0.9-0.4,1.5-0.9,2.9-0.9c0.9,0,1.3,0,2.2,0.2s1.3,0.4,1.8,0.9l-1.1,1.5
			c-0.4-0.2-1.1-0.4-1.3-0.4c-0.4-0.2-1.1-0.2-1.3-0.2c-0.4,0-0.9,0-1.1,0.2c-0.2,0.2-0.2,0.4-0.2,0.9c0,0.4,0,0.2,0,0.4
			s0.2,0.2,0.2,0.4c0.2,0.2,0.4,0.2,0.9,0.4c0.2,0.2,0.9,0.2,1.1,0.4c0.4,0.2,1.1,0.4,1.3,0.9c0.4,0.2,0.9,0.4,1.1,0.9
			c0.2,0.2,0.4,0.4,0.4,0.9C-216.5,473.1-216.5,473.4-216.5,474z"/>
		<path d="M-208.3,476.7c-0.4,0.2-1.3,0.4-2.4,0.4c-1.5,0-2.7-0.4-3.5-1.3c-0.9-1.1-1.3-2.4-1.3-4.2s0.4-3.5,1.3-4.2
			c0.9-1.1,2.2-1.3,3.8-1.3c0.4,0,1.1,0,1.3,0.2c0.4,0,0.9,0.2,1.1,0.4c0.2,0.2,0.4,0.2,0.9,0.4c0.4,0.2,0.4,0.4,0.9,0.9l-1.8,1.3
			c-0.2-0.4-0.9-0.9-1.1-1.1c-0.2-0.2-0.9-0.2-1.1-0.2c-0.9,0-1.3,0.2-1.8,1.1c-0.4,0-0.9,1.1-0.9,2.2s0.2,2.2,0.4,2.7
			c0.2,0.9,1.1,1.1,1.8,1.1c0.4,0,0.9,0,1.1-0.2c0.2-0.2,0.9-0.4,1.1-1.1l1.8,1.3C-207.2,475.8-207.7,476.2-208.3,476.7z"/>
		<path d="M-198.8,468.1c-0.2,0-0.4-0.2-0.9-0.2c-0.2,0-0.4,0-1.1,0c-0.2,0-0.9,0-1.1,0.2c-0.2,0-0.9,0.2-1.1,0.9v8.2h-2.7v-11h2.7
			v0.9c0.2-0.2,0.4-0.4,1.1-0.9c0.4-0.2,0.9-0.2,1.3-0.2s0.9,0,1.1,0c0.2,0,0.4,0.2,0.9,0.2L-198.8,468.1z"/>
		<path d="M-194.6,462.8c0,0.2-0.2,0.4-0.4,0.9c-0.2,0.2-0.9,0.2-1.1,0.2c-0.4,0-0.9,0-1.1-0.2c-0.2-0.2-0.4-0.4-0.4-0.9
			s0.2-0.4,0.4-0.9c0.2-0.2,0.9-0.2,1.1-0.2c0.4,0,0.9,0,1.1,0.2C-194.6,462.3-194.6,462.5-194.6,462.8z M-197.3,476.9v-10.8h2.7v11
			h-2.7V476.9z"/>
		<path d="M-183.1,471.6c0,1.8-0.2,3.1-1.1,4.2s-1.8,1.3-3.1,1.3c-1.1,0-1.8-0.2-2.4-0.9v3.8l-2.7,1.1v-15h2.7v0.9
			c0.2-0.2,0.9-0.4,1.1-0.9c0.2-0.2,0.9-0.2,1.5-0.2c0.4,0,1.3,0,1.8,0.2s1.1,0.4,1.3,1.1c0.2,0.4,0.4,1.1,0.9,1.8
			C-183.1,469.4-183.1,470.5-183.1,471.6z M-185.8,471.6c0-1.3-0.2-2.4-0.4-3.1c-0.2-0.4-0.9-1.1-1.5-1.1c-0.4,0-0.9,0-1.1,0.2
			c-0.2,0.2-0.9,0.4-0.9,0.9v5.7c0.2,0.2,0.4,0.4,1.1,0.9c0.2,0.2,0.9,0.2,1.3,0.2c0.4,0,1.1-0.2,1.5-0.9
			C-186,474-185.8,472.9-185.8,471.6z"/>
		<path d="M-176.3,476.7c-0.2,0.2-0.4,0.2-1.1,0.2c-0.2,0-0.9,0.2-1.3,0.2c-1.1,0-1.5-0.2-2.2-0.9c-0.4-0.4-0.4-1.1-0.4-2.2v-6.6
			h-1.5v-1.5h1.5v-3.1l2.7-1.1v4.2h2.7v1.8h-2.7v6.4c0,0.2,0,0.9,0.2,0.9c0.2,0.2,0.4,0.2,0.9,0.2c0.2,0,0.4,0,1.1-0.2
			c0.2,0,0.4-0.2,0.9-0.2L-176.3,476.7z"/>
		<path d="M-161.5,476.9l-1.1-4h-4l-1.1,4h-2.9l4.4-14.6h2.7l4.4,14.6H-161.5z M-163.7,468.7c0-0.2-0.2-0.4-0.2-0.9
			c0-0.2-0.2-0.4-0.2-1.1c0-0.2-0.2-0.4-0.2-0.9c0-0.4,0-0.4-0.2-0.4c0,0.2,0,0.2-0.2,0.4c0,0.2,0,0.4-0.2,0.9
			c0,0.2-0.2,0.4-0.2,0.9c0,0.2-0.2,0.4-0.2,0.9l-0.9,2.4h2.9L-163.7,468.7z"/>
		<path d="M-150.9,476.9v-6.9c0-0.9,0-1.5-0.2-1.8c-0.2-0.2-0.9-0.4-1.3-0.4s-0.9,0-1.1,0.2c-0.2,0.2-0.9,0.4-0.9,0.9v8.2h-2.7
			v-10.8h2.7v0.9c0.2-0.2,0.9-0.4,1.1-0.9c0.4-0.2,1.1-0.2,1.5-0.2c1.3,0,2.4,0.2,2.9,1.1s0.9,1.5,0.9,3.1v7.1h-2.9V476.9z"/>
		<path d="M-140,476.9V476c-0.2,0.2-0.9,0.4-1.1,0.9c-0.2,0.2-0.9,0.2-1.5,0.2c-0.4,0-1.3,0-1.8-0.2c-0.4-0.2-1.1-0.4-1.3-1.1
			c-0.2-0.4-0.4-1.1-0.9-1.8c-0.2-0.9-0.2-1.5-0.2-2.7c0-1.8,0.2-3.1,1.1-4.2s1.8-1.3,3.1-1.3c1.1,0,1.8,0.2,2.4,0.9V463l2.7-1.1
			v15.2h-2.4V476.9z M-140,468.7c-0.2-0.2-0.4-0.4-1.1-0.9c-0.2-0.2-0.9-0.2-1.3-0.2c-0.9,0-1.1,0.2-1.5,0.9
			c-0.2,0.4-0.4,1.5-0.4,2.9c0,1.3,0.2,2.4,0.4,3.1c0.2,0.4,0.9,1.1,1.5,1.1c0.4,0,0.9,0,1.3-0.2c0.2-0.2,0.9-0.4,0.9-0.9v-5.7
			L-140,468.7L-140,468.7z"/>
		<path d="M-123.7,476.9l-1.3-2.9c0-0.2-0.2-0.2-0.2-0.4c0-0.2-0.2-0.4-0.2-0.9c0-0.2-0.2-0.4-0.2-0.9c0-0.2-0.2-0.2-0.2-0.4
			c0,0,0,0.2-0.2,0.4c0,0.2-0.2,0.4-0.2,0.9c0,0.2-0.2,0.4-0.2,0.9c0,0.2-0.2,0.4-0.2,0.4l-1.3,2.9h-2.9l4.2-7.7l-4-7.1h2.9l1.1,2.4
			c0,0.2,0.2,0.2,0.2,0.4c0,0.2,0.2,0.4,0.2,0.9c0,0.2,0.2,0.4,0.2,0.9c0,0.2,0.2,0.2,0.2,0.4c0,0,0-0.2,0.2-0.4
			c0-0.2,0.2-0.4,0.2-0.9c0-0.4,0.2-0.4,0.2-0.9c0-0.4,0.2-0.4,0.2-0.4l1.1-2.4h2.9l-4,7.1l4.2,7.7H-123.7z"/>
		<path d="M-109.1,476.9v-5.7c0-0.2,0-0.4,0-0.9c0-0.2,0-0.9,0-1.1c0-0.2,0-0.9,0-1.1s0-0.4,0-0.9c0,0.2-0.2,0.2-0.2,0.9
			c0,0.2-0.2,0.4-0.2,1.1c-0.2,0.2-0.2,0.9-0.4,1.1c-0.2,0.2-0.2,0.9-0.2,1.1l-2.4,6.2l-2.4-6.2c0-0.2-0.2-0.4-0.2-1.1
			c-0.2-0.2-0.2-0.9-0.4-1.1c-0.2-0.2-0.2-0.9-0.2-1.1s-0.2-0.4-0.2-0.9c0,0.2,0,0.2,0,0.9c0,0.2,0,0.4,0,1.1c0,0.2,0,0.9,0,1.1
			c0,0.2,0,0.4,0,0.9v5.7h-2.4v-14.6h2.7l2.4,6.2c0,0.2,0.2,0.4,0.2,0.9c0,0.2,0.2,0.4,0.2,1.1c0,0.2,0.2,0.4,0.2,0.9
			c0,0.2,0.2,0.4,0.2,0.4c0-0.2,0-0.2,0.2-0.4c0-0.2,0.2-0.4,0.2-0.9c0-0.2,0.2-0.4,0.2-1.1c0-0.2,0.2-0.4,0.2-0.9l2.4-6.2h2.7v14.6
			H-109.1z"/>
		<path d="M-103.8,476.9v-14.6h2.7v12.6h6.2v2.2h-8.6v-0.2H-103.8z"/>
	</g>
	<g>
		<path class="st0" d="M-236.4,386.7l-24.3-24.3l-24.3,24.3l8.6,8.6l8-8v2.9v44.2c0,3.1,0.2,11.3-14.6,11.3
			c-14.8,0-15.7-7.7-15.7-13v-1.5h-18.6v1.5c0,7.7-1.1,25.9,34,25.9c30.9,0,29.8-17,29.8-22.5v-45.5l0,0v-2.9l8,8L-236.4,386.7z"/>
		<g>
			<polygon class="st1" points="-345.1,430.3 -345.1,432 -355.5,406 -355.5,404.6 			"/>
		</g>
		<g>
			<polygon class="st2" points="-355.5,404.6 -355.5,406 -366.3,432 -366.3,430.3 			"/>
		</g>
		<g>
			<rect x="-371" y="441.8" class="st1" width="30.7" height="1.3"/>
		</g>
		<g>
			
				<linearGradient id="SVGID_1_" gradientUnits="userSpaceOnUse" x1="-355.3853" y1="458.6461" x2="-355.3853" y2="393.2705" gradientTransform="matrix(1 0 0 1 0 -3.4)">
				<stop  offset="0" style="stop-color:#3C95D1"/>
				<stop  offset="0.1" style="stop-color:#0684C3"/>
				<stop  offset="0.4" style="stop-color:#0A74BB"/>
				<stop  offset="0.6" style="stop-color:#0A74BB"/>
				<stop  offset="0.9" style="stop-color:#0684C3"/>
				<stop  offset="1" style="stop-color:#3C95D1"/>
			</linearGradient>
			<path class="st3" d="M-345.3,389.6l29.4,65.6h-18.8l-5.5-13.5H-371l-5.5,13.5h-18.3l29.6-65.2h19.9V389.6z M-366.3,430.3h21.2
				l-10.6-25.6L-366.3,430.3"/>
		</g>
		<g>
			<path class="st4" d="M-345.8,389.6l29.6,65.6h-18.8l-5.5-13.5h-30.7l-5.5,13.5H-395l29.6-65.2h19.4v-0.4H-345.8z M-366.3,430.3
				h21.2l-10.6-25.6L-366.3,430.3"/>
		</g>
		<g>
			<rect x="-394.8" y="455.2" class="st1" width="18.3" height="1.3"/>
		</g>
		<g>
			<polygon class="st2" points="-371,441.8 -371,443.1 -376.5,456.6 -376.5,455.2 			"/>
		</g>
		<g>
			<rect x="-334.9" y="455.2" class="st1" width="18.8" height="1.3"/>
		</g>
		<g>
			<polygon class="st1" points="-334.9,455.2 -334.9,456.6 -340.5,443.1 -340.5,441.8 			"/>
		</g>
		<g>
			<g>
				<polygon class="st5" points="-345.1,429.6 -345.1,430.9 -355.5,405.3 -355.5,404 				"/>
			</g>
			<g>
				<polygon class="st5" points="-355.5,404 -355.5,405.3 -366.3,430.9 -366.3,429.6 				"/>
			</g>
			<g>
				<rect x="-371" y="440.9" class="st5" width="30.7" height="1.3"/>
			</g>
			<g>
				<rect x="-394.8" y="454.1" class="st5" width="18.3" height="1.3"/>
			</g>
			<g>
				<polygon class="st5" points="-371,440.9 -371,442.2 -376.5,455.7 -376.5,454.1 				"/>
			</g>
			<g>
				<rect x="-334.9" y="454.1" class="st5" width="18.8" height="1.3"/>
			</g>
			<g>
				<polygon class="st5" points="-334.9,454.1 -334.9,455.7 -340.5,442.2 -340.5,440.9 				"/>
			</g>
		</g>
		<g>
			
				<linearGradient id="SVGID_2_" gradientUnits="userSpaceOnUse" x1="-212.7471" y1="458.5828" x2="-212.7471" y2="393.2075" gradientTransform="matrix(1 0 0 1 0 -3.4)">
				<stop  offset="0" style="stop-color:#3C95D1"/>
				<stop  offset="0.1" style="stop-color:#0684C3"/>
				<stop  offset="0.4" style="stop-color:#0A74BB"/>
				<stop  offset="0.6" style="stop-color:#0A74BB"/>
				<stop  offset="0.9" style="stop-color:#0684C3"/>
				<stop  offset="1" style="stop-color:#3C95D1"/>
			</linearGradient>
			<path class="st6" d="M-202.8,389.6l29.4,65.2h-18.8l-5.5-13.5h-30.5l-5.5,13.5h-18.3l29.6-65.2
				C-222.2,389.6-202.8,389.6-202.8,389.6z M-223.4,430.3h21.4l-10.6-25.6L-223.4,430.3"/>
		</g>
		<g>
			<g>
				<polygon class="st1" points="-202.1,430.3 -202.1,432 -212.7,406 -212.7,404.6 				"/>
			</g>
			<g>
				<polygon class="st2" points="-212.7,404.6 -212.7,406 -223.4,432 -223.4,430.3 				"/>
			</g>
			<g>
				<rect x="-228" y="441.8" class="st1" width="30.7" height="1.3"/>
			</g>
			<g>
				<rect x="-251.9" y="455.2" class="st1" width="18.3" height="1.3"/>
			</g>
			<g>
				<polygon class="st2" points="-228,441.8 -228,443.1 -234,456.6 -234,455.2 				"/>
			</g>
			<g>
				<rect x="-192.2" y="455.2" class="st1" width="18.8" height="1.3"/>
			</g>
			<g>
				<polygon class="st1" points="-192.2,455.2 -192.2,456.6 -197.5,443.1 -197.5,441.8 				"/>
			</g>
		</g>
		<g>
			<g>
				<polygon class="st5" points="-202.1,429.6 -202.1,430.9 -212.7,405.3 -212.7,404 				"/>
			</g>
			<g>
				<polygon class="st5" points="-212.7,404 -212.7,405.3 -223.4,430.9 -223.4,429.6 				"/>
			</g>
			<g>
				<rect x="-228" y="440.9" class="st5" width="30.7" height="1.3"/>
			</g>
			<g>
				<rect x="-251.9" y="454.1" class="st5" width="18.3" height="1.3"/>
			</g>
			<g>
				<polygon class="st5" points="-228,440.9 -228,442.2 -234,455.7 -234,454.1 				"/>
			</g>
			<g>
				<rect x="-192.2" y="454.1" class="st5" width="18.8" height="1.3"/>
			</g>
			<g>
				<polygon class="st5" points="-192.2,454.1 -192.2,455.7 -197.5,442.2 -197.5,440.9 				"/>
			</g>
		</g>
		<g>
			
				<linearGradient id="SVGID_3_" gradientUnits="userSpaceOnUse" x1="-132.2023" y1="458.6461" x2="-132.2023" y2="393.2705" gradientTransform="matrix(1 0 0 1 0 -3.4)">
				<stop  offset="0" style="stop-color:#3C95D1"/>
				<stop  offset="0.1" style="stop-color:#0684C3"/>
				<stop  offset="0.4" style="stop-color:#0A74BB"/>
				<stop  offset="0.6" style="stop-color:#0A74BB"/>
				<stop  offset="0.9" style="stop-color:#0684C3"/>
				<stop  offset="1" style="stop-color:#3C95D1"/>
			</linearGradient>
			<polygon class="st7" points="-122.4,421.4 -95.2,455.2 -116.4,455.2 -132.1,432.9 -148.9,455.2 -169.2,455.2 -142.3,421.9 
				-167.9,389.6 -146.9,389.6 -132.1,411.1 -116.8,389.6 -96.7,389.6 			"/>
		</g>
		<g>
			<g>
				<polygon class="st8" points="-96.7,389.6 -96.7,391.2 -122.4,422.8 -122.4,421.4 				"/>
			</g>
			<g>
				<polygon class="st1" points="-142.3,421.9 -142.3,423.2 -167.9,391.2 -167.9,389.6 				"/>
			</g>
			<g>
				<polygon class="st1" points="-116.4,455.2 -116.4,456.6 -132.1,434.3 -132.1,432.9 				"/>
			</g>
			<g>
				<rect x="-169.2" y="455.2" class="st1" width="20.1" height="1.3"/>
			</g>
			<g>
				<polygon class="st9" points="-132.1,432.9 -132.1,434.3 -148.9,456.6 -148.9,455.2 				"/>
			</g>
			<g>
				<rect x="-116.4" y="455.2" class="st1" width="21.2" height="1.3"/>
			</g>
		</g>
		<g>
			<g>
				<polygon class="st5" points="-96.7,389 -96.7,390.3 -122.4,421.9 -122.4,420.3 				"/>
			</g>
			<g>
				<polygon class="st5" points="-142.3,420.8 -142.3,422.5 -167.9,390.3 -167.9,389 				"/>
			</g>
			<g>
				<polygon class="st5" points="-116.4,454.1 -116.4,455.7 -132.1,433.4 -132.1,432 				"/>
			</g>
			<g>
				<rect x="-169.2" y="454.1" class="st5" width="20.1" height="1.3"/>
			</g>
			<g>
				<polygon class="st5" points="-132.1,432 -132.1,433.4 -148.9,455.7 -148.9,454.1 				"/>
			</g>
			<g>
				<rect x="-116.4" y="454.1" class="st5" width="21.2" height="1.3"/>
			</g>
		</g>
		<g class="st10">
			<g>
				<g>
					<defs>
						<path id="SVGID_4_" d="M-268.4,434.3v1.3v-0.2V434.3C-268.4,434-268.4,434.3-268.4,434.3z"/>
					</defs>
					<clipPath id="SVGID_5_">
						<use xlink:href="#SVGID_4_"  style="overflow:visible;"/>
					</clipPath>
					<g class="st11">
						<path class="st12" d="M-268.4,434.3v1.3v-0.2V434.3C-268.4,434-268.4,434.3-268.4,434.3"/>
					</g>
				</g>
			</g>
		</g>
		<g>
			<g>
				<polygon class="st1" points="-268.4,386.7 -268.4,388.3 -276.4,396.2 -276.4,394.7 				"/>
			</g>
			<g>
				<polygon class="st1" points="-276.4,394.7 -276.4,396.2 -285,387.6 -285,386.3 				"/>
			</g>
			<g>
				<polygon class="st1" points="-245,394.7 -245,396.2 -253,388.3 -253,386.7 				"/>
			</g>
			<g>
				<polygon class="st1" points="-236.4,386.3 -236.4,387.6 -245,396.2 -245,394.7 				"/>
			</g>
			<g class="st10">
				<g>
					<g>
						<defs>
							<path id="SVGID_6_" d="M-253,437.3v1.3c0,6.4-0.9,21.4-29.8,21.4c-32.9,0-34-16.4-34-24.5v-1.3c0,8.2,1.1,24.5,34,24.5
								C-253.6,458.6-253,443.5-253,437.3z"/>
						</defs>
						<clipPath id="SVGID_7_">
							<use xlink:href="#SVGID_6_"  style="overflow:visible;"/>
						</clipPath>
						<g class="st13">
							<path class="st14" d="M-253,437.3v1.3c0,1.1,0,2.7-0.2,4.2v-1.3C-253,439.8-253,438.2-253,437.3"/>
							<path class="st15" d="M-253.2,441.5v1.3c-0.2,1.1-0.2,2.2-0.9,3.1v-1.3C-253.4,443.5-253.2,442.4-253.2,441.5"/>
							<path class="st16" d="M-253.6,444.6v1.3c-0.2,1.1-0.9,1.8-1.3,2.9v-1.3C-254.5,446.4-254.3,445.5-253.6,444.6"/>
							<path class="st12" d="M-255,447.5v1.3c-2.9,5.7-10.4,11-27.8,11c-32.9,0-34-16.4-34-24.5V434c0,8.2,1.1,24.5,34,24.5
								C-265.3,458.6-258,453.3-255,447.5"/>
						</g>
					</g>
				</g>
			</g>
		</g>
		<g>
			
				<linearGradient id="SVGID_8_" gradientUnits="userSpaceOnUse" x1="-276.6103" y1="461.9607" x2="-276.6103" y2="365.2515" gradientTransform="matrix(1 0 0 1 0 -3.4)">
				<stop  offset="0" style="stop-color:#3C95D1"/>
				<stop  offset="0.1" style="stop-color:#0684C3"/>
				<stop  offset="0.4" style="stop-color:#0A74BB"/>
				<stop  offset="0.6" style="stop-color:#0A74BB"/>
				<stop  offset="0.75" style="stop-color:#0684C3"/>
				<stop  offset="0.9" style="stop-color:#3C95D1"/>
			</linearGradient>
			<path class="st17" d="M-260.7,362l24.3,24.3l-8.6,8.4l-8-8v2.9V436c0,5.5,0.9,22.5-29.8,22.5c-35.1,0-34-18.3-34-25.9v-1.5h18.6
				v1.5c0.2,5.1,0.9,13,15.7,13c14.6,0,14.6-8.2,14.6-11.3v-44.6V387l-8,8l-8.6-8.4L-260.7,362z"/>
		</g>
		<g class="st10">
			<g>
				<g>
					<defs>
						<path id="SVGID_9_" d="M-315.5,351.6v-1.3c0,0.2,0,0.9,0,1.1v1.3C-315.5,352.5-315.5,352.1-315.5,351.6z"/>
					</defs>
					<clipPath id="SVGID_10_">
						<use xlink:href="#SVGID_9_"  style="overflow:visible;"/>
					</clipPath>
					<g class="st18">
						<path class="st12" d="M-315.5,351.4v1.3c0-0.2,0-0.4,0-1.1v-1.3C-315.5,350.5-315.5,350.7-315.5,351.4"/>
					</g>
				</g>
			</g>
		</g>
		<g class="st10">
			<g>
				<g>
					<defs>
						<path id="SVGID_11_" d="M-251.6,353.4c0,0.4,0,1.1,0,1.3v1.3c0-0.4,0-0.9,0-1.3C-251.6,354.5-251.6,354-251.6,353.4z"/>
					</defs>
					<clipPath id="SVGID_12_">
						<use xlink:href="#SVGID_11_"  style="overflow:visible;"/>
					</clipPath>
					<g class="st19">
						<path class="st14" d="M-251.6,353.4v1.3c0,0.4,0,1.1,0,1.3v-1.3C-251.6,354.5-251.6,354-251.6,353.4"/>
					</g>
				</g>
			</g>
		</g>
		<g>
			
				<linearGradient id="SVGID_13_" gradientUnits="userSpaceOnUse" x1="-292.0746" y1="429.0374" x2="-292.0746" y2="332.2608" gradientTransform="matrix(1 0 0 1 0 -3.4)">
				<stop  offset="0.1" style="stop-color:#0684C3"/>
				<stop  offset="0.4" style="stop-color:#0A74BB"/>
				<stop  offset="0.65" style="stop-color:#3C95D1"/>
				<stop  offset="1" style="stop-color:#6BB3E2"/>
			</linearGradient>
			<path class="st20" d="M-285.7,328.8c35.1,0,34,18.3,34,25.9v1.5h-18.6v-1.5c-0.2-5.1-0.9-13-15.7-13c-14.6,0-14.6,8.2-14.6,11.3
				v44.2v2.9l8-8l8.6,8.4l-24.3,24.3l-24.3-24.3l8.6-8.6l8,8v-2.7v-45.7C-315.5,345.9-316.4,328.8-285.7,328.8z"/>
		</g>
		<g>
			<path class="st4" d="M-202.8,389.6l29.4,65.2h-18.8l-5.5-13.5h-30.5l-5.5,13.5h-18.3l29.6-65.2
				C-222.2,389.6-202.8,389.6-202.8,389.6z M-223.4,430.3h21.4l-10.6-25.6L-223.4,430.3"/>
		</g>
		<g>
			<polygon class="st4" points="-122.4,421.4 -95.2,455.2 -116.4,455.2 -132.1,432.9 -148.9,455.2 -169.2,455.2 -142.3,421.9 
				-167.9,389.6 -146.9,389.6 -132.1,411.1 -116.8,389.6 -96.7,389.6 			"/>
		</g>
		<g>
			<path class="st4" d="M-260.7,362l24.3,24.3l-8.6,8.4l-8-8v2.9V436c0,5.5,0.9,22.5-29.8,22.5c-35.1,0-34-18.3-34-25.9v-1.5h18.6
				v1.5c0.2,5.1,0.9,13,15.7,13c14.6,0,14.6-8.2,14.6-11.3v-44.6V387l-8,8l-8.6-8.4L-260.7,362z"/>
		</g>
		<g>
			<path class="st4" d="M-285.7,328.8c35.1,0,34,18.3,34,25.9v1.5h-18.6v-1.5c-0.2-5.1-0.9-13-15.7-13c-14.6,0-14.6,8.2-14.6,11.3
				v44.2v2.9l8-8l8.6,8.4l-24.3,24.3l-24.3-24.3l8.6-8.6l8,8v-2.7v-45.7C-315.5,345.9-316.4,328.8-285.7,328.8z"/>
		</g>
		<g>
			<g class="st10">
				<g>
					<g>
						<defs>
							<path id="SVGID_14_" d="M-300,354.5v-1.3c0-3.5,0.2-11,14.6-11c14.8,0,15.7,7.7,15.7,13v1.3c-0.2-5.1-0.9-13-15.7-13
								C-300,343.4-300,351.4-300,354.5z"/>
						</defs>
						<clipPath id="SVGID_15_">
							<use xlink:href="#SVGID_14_"  style="overflow:visible;"/>
						</clipPath>
						<g class="st21">
							<path class="st12" d="M-270.2,354.7v1.3c-0.2-5.1-0.9-13-15.7-13c-8.2,0-11.9,2.7-13.3,5.5v-1.3c1.5-2.9,5.1-5.5,13.3-5.5
								C-270.9,342.1-270.2,349.8-270.2,354.7"/>
							<path class="st16" d="M-298.9,347.4v1.3c-0.2,0.4-0.4,1.1-0.4,1.5V349C-299.4,348.5-299.1,347.9-298.9,347.4"/>
							<path class="st15" d="M-299.4,349v1.3c-0.2,0.4-0.2,1.1-0.2,1.5v-1.3C-300,350.1-299.8,349.6-299.4,349"/>
							<path class="st14" d="M-300,350.7v1.3c0,1.1-0.2,1.8-0.2,2.4v-1.3C-300,352.5-300,351.6-300,350.7"/>
						</g>
					</g>
				</g>
			</g>
			<g>
				<rect x="-270.2" y="356.5" class="st1" width="18.6" height="1.3"/>
			</g>
			<g>
				<polygon class="st1" points="-283.7,401.3 -283.7,402.9 -308,427 -308,425.6 				"/>
			</g>
			<g>
				<polygon class="st1" points="-308,425.6 -308,427 -332.3,402.9 -332.3,401.3 				"/>
			</g>
		</g>
		<g>
			<g class="st10">
				<g>
					<path id="SVGID_16_" class="st5" d="M-300,353.8v-1.3c0-3.5,0.2-11,14.6-11c14.8,0,15.7,7.7,15.7,13v1.3
						c-0.2-5.1-0.9-13-15.7-13C-300,342.5-300,350.3-300,353.8z"/>
				</g>
				<g>
					<g>
						<defs>
							<path id="SVGID_17_" d="M-300,353.8v-1.3c0-3.5,0.2-11,14.6-11c14.8,0,15.7,7.7,15.7,13v1.3c-0.2-5.1-0.9-13-15.7-13
								C-300,342.5-300,350.3-300,353.8z"/>
						</defs>
						<clipPath id="SVGID_19_">
							<use xlink:href="#SVGID_17_"  style="overflow:visible;"/>
						</clipPath>
						<g class="st22">
							<path class="st5" d="M-270.2,354v1.3c-0.2-5.1-0.9-13-15.7-13c-8.2,0-11.9,2.7-13.3,5.5v-1.3c1.5-2.9,5.1-5.5,13.3-5.5
								C-270.9,341-270.2,349-270.2,354"/>
							<path class="st5" d="M-298.9,346.5v1.3c-0.2,0.4-0.4,1.1-0.4,1.5v-1.3C-299.4,347.6-299.1,347.2-298.9,346.5"/>
							<path class="st5" d="M-299.4,348.3v1.3c-0.2,0.4-0.2,1.1-0.2,1.5v-1.3C-300,349.2-299.8,348.7-299.4,348.3"/>
							<path class="st5" d="M-300,349.8v1.3c0,1.1-0.2,1.8-0.2,2.4v-1.3C-300,351.6-300,350.7-300,349.8"/>
						</g>
					</g>
				</g>
			</g>
			<g>
				<rect x="-270.2" y="355.4" class="st5" width="18.6" height="1.3"/>
			</g>
			<g>
				<polygon class="st5" points="-283.7,400.4 -283.7,401.8 -308,426.1 -308,424.8 				"/>
			</g>
			<g>
				<polygon class="st5" points="-308,424.8 -308,426.1 -332.3,401.8 -332.3,400.4 				"/>
			</g>
		</g>
		<g>
			<g>
				<polygon class="st5" points="-268.4,386.1 -268.4,387.4 -276.4,395.1 -276.4,393.8 				"/>
			</g>
			<g>
				<polygon class="st5" points="-276.4,393.8 -276.4,395.1 -285,386.7 -285,385.2 				"/>
			</g>
			<g>
				<polygon class="st5" points="-245,393.8 -245,395.1 -253,387.4 -253,386.1 				"/>
			</g>
			<g>
				<polygon class="st5" points="-236.4,385.2 -236.4,386.7 -245,395.1 -245,393.8 				"/>
			</g>
			<g class="st10">
				<g>
					<path id="SVGID_18_" class="st5" d="M-253,436.5v1.3c0,6.4-0.9,21.4-29.8,21.4c-32.9,0-34-16.4-34-24.5v-1.3
						c0,8.2,1.1,24.5,34,24.5C-253.6,457.7-253,442.9-253,436.5z"/>
				</g>
				<g>
					<g>
						<defs>
							<path id="SVGID_20_" d="M-253,436.5v1.3c0,6.4-0.9,21.4-29.8,21.4c-32.9,0-34-16.4-34-24.5v-1.3c0,8.2,1.1,24.5,34,24.5
								C-253.6,457.7-253,442.9-253,436.5z"/>
						</defs>
						<clipPath id="SVGID_21_">
							<use xlink:href="#SVGID_20_"  style="overflow:visible;"/>
						</clipPath>
						<g class="st23">
							<path class="st5" d="M-253,436.5v1.3c0,1.1,0,2.7-0.2,4.2v-1.3C-253,438.9-253,437.6-253,436.5"/>
							<path class="st5" d="M-253.2,440.4v1.3c-0.2,1.1-0.2,2.2-0.9,3.1v-1.3C-253.4,442.4-253.2,441.5-253.2,440.4"/>
							<path class="st5" d="M-253.6,443.5v1.3c-0.2,1.1-0.9,1.8-1.3,2.9v-1.3C-254.5,445.7-254.3,444.6-253.6,443.5"/>
							<path class="st5" d="M-255,446.4v1.3c-2.9,5.7-10.4,11-27.8,11c-32.9,0-34-16.4-34-24.5v-1.3c0,8.2,1.1,24.5,34,24.5
								C-265.3,457.7-258,452.4-255,446.4"/>
						</g>
					</g>
				</g>
			</g>
		</g>
	</g>
</g>
</svg>
