<?xml version="1.0" encoding="utf-8"?>
<!-- Generator: Adobe Illustrator 19.0.0, SVG Export Plug-In . SVG Version: 6.00 Build 0)  -->
<svg version="1.1" id="Layer_1" xmlns="http://www.w3.org/2000/svg" xmlns:xlink="http://www.w3.org/1999/xlink" x="0px" y="0px"
	 viewBox="115 99.7 841.9 595.3" style="enable-background:new 115 99.7 841.9 595.3;" xml:space="preserve">
<style type="text/css">
	.st0{fill:#FFFFFF;}
	.st1{fill:#2062AF;}
	.st2{fill:#3C9CD7;}
	.st3{fill:url(#SVGID_1_);}
	.st4{fill:url(#SVGID_2_);}
	.st5{fill:url(#SVGID_3_);}
	.st6{opacity:5.000000e-002;}
	.st7{fill:url(#SVGID_4_);}
	.st8{opacity:5.000000e-002;enable-background:new    ;}
</style>
<g>
	<path class="st0" d="M269,175.4c-3.6,3.5-7,7.2-10.4,10.9"/>
	<path class="st0" d="M343.7,113.6c-1,0-1.9-0.1-3-0.1c-3,2.7-6.2,5.3-9.3,7.9c-2.5,2.2-5,4.4-7.5,6.4c-0.8,4.7-2.1,9.3-3.5,13.9
		C329,132.9,336.8,123.5,343.7,113.6z"/>
	<path class="st0" d="M304.6,96.7c1.1-0.6,2.2-1.2,3.4-1.7c1.5-1.6,2.9-3,4.4-4.6c-3.1,1.6-6.1,3.5-8.7,5.8
		C303.9,96.3,304.3,96.6,304.6,96.7z"/>
	<path class="st0" d="M242.8,212.6v6.4c0.4-2.4,0.8-4.8,1.3-7.1C243.6,212.1,243.3,212.4,242.8,212.6z"/>
	<g>
		<path class="st1" d="M731.5,637.8l-203.6,54.8c-1.5,0.4-3.3,0.4-4.8,0l-203.4-54.8c-3.8-1-6.5-4.3-6.9-8.1l-47.3-513.5
			c-0.5-5.4,3.8-10.2,9.2-10.2h501.6c5.4,0,9.8,4.7,9.2,10.2l-47.3,513.5C737.9,633.6,735.2,636.9,731.5,637.8z"/>
		<path class="st2" d="M534.8,149c-5.1,0-9.3,4.2-9.3,9.3v489.4l0.5,0.2l165.5-44.6c3.8-1,6.6-4.3,6.9-8.2l38.1-436
			c0.5-5.4-3.8-10.2-9.3-10.2L534.8,149L534.8,149z"/>
		<g>
			<path class="st0" d="M525.3,281.5l-145.5,60.6c-3.7,1.5-6.1,5.3-5.8,9.3l3.5,42.9c0.5,6.4,7.1,10.3,12.9,7.8l134.7-57.6
				l151.2-64.6c3.1-1.3,5.2-4.3,5.6-7.7l4.3-42.9c0.7-7-6.4-12.2-12.8-9.6L525.3,281.5z"/>
			
				<linearGradient id="SVGID_1_" gradientUnits="userSpaceOnUse" x1="449.6297" y1="397.5967" x2="449.6297" y2="280.6826" gradientTransform="matrix(1 0 0 1 0 5.4)">
				<stop  offset="0.3865" style="stop-color:#D1D3D4;stop-opacity:0"/>
				<stop  offset="1" style="stop-color:#D1D3D4"/>
			</linearGradient>
			<path class="st3" d="M374.1,351.5l3.5,42.9c0.5,6.4,7.1,10.3,12.9,7.8L519.6,347c3.4-1.4,5.6-4.8,5.6-8.6v-42.9
				c0-6.7-6.8-11.2-12.9-8.6l-132.6,55.3C376,343.7,373.7,347.4,374.1,351.5z"/>
			
				<linearGradient id="SVGID_2_" gradientUnits="userSpaceOnUse" x1="605.8726" y1="334.4183" x2="605.8726" y2="213.6389" gradientTransform="matrix(1 0 0 1 0 5.4)">
				<stop  offset="0.3865" style="stop-color:#D1D3D4;stop-opacity:0"/>
				<stop  offset="1" style="stop-color:#D1D3D4"/>
			</linearGradient>
			<path class="st4" d="M673.4,219.7l-142.3,59.4c-3.5,1.4-5.8,4.8-5.8,8.6v42.7c0,6.7,6.9,11.2,13,8.6l138-59.2
				c3.1-1.3,5.2-4.3,5.6-7.7l4.3-42.9C687,222.3,679.9,217.1,673.4,219.7z"/>
			
				<linearGradient id="SVGID_3_" gradientUnits="userSpaceOnUse" x1="374.5413" y1="457.8936" x2="675.0139" y2="457.8936" gradientTransform="matrix(1 0 0 1 0 5.4)">
				<stop  offset="0" style="stop-color:#E8E7E5"/>
				<stop  offset="1" style="stop-color:#FFFFFF"/>
			</linearGradient>
			<path class="st5" d="M374.6,354.8l3.5,44c0.4,4.8,4.4,8.5,9.2,8.6l206.7,0.7c5.3,0,9.6,4.5,9.2,9.9l-4,67c-0.2,4-3,7.4-6.8,8.4
				l-65.3,18.4c-1.5,0.4-3.3,0.5-4.8,0.1L460,496c-3.9-1-6.7-4.3-7-8.2l-3.1-36.7c-0.4-4.8-4.4-8.5-9.3-8.5h-47.4
				c-5.4,0-9.8,4.7-9.3,10.2l7.2,83.6c0.3,3.8,3,7.1,6.7,8.1l125.2,37c1.7,0.5,3.6,0.5,5.2,0l124.4-36.4c3.7-1.1,6.4-4.3,6.7-8.1
				L675,354.9c0.5-5.4-3.8-10.2-9.3-10.2H383.9C378.5,344.7,374.2,349.4,374.6,354.8z"/>
			<g class="st6">
				<path d="M516,344.7H383.6c-5.4,0-9.8,4.6-9.3,10.1l3.6,44c0.4,4.8,4.4,8.5,9.2,8.5l128.8,0.4c5.1,0,9.3-4.2,9.3-9.3V354
					C525.3,348.9,521.1,344.7,516,344.7z"/>
				<path d="M525.3,512.1l-0.6,0.3L459.8,496c-3.9-1-6.7-4.3-7-8.2l-3.1-36.7c-0.4-4.8-4.4-8.5-9.3-8.5H393c-5.4,0-9.8,4.7-9.3,10.2
					l7.3,83.6c0.3,3.8,3,7.1,6.7,8.1l115.6,34.2c6,1.7,12-2.7,12-8.9v-57.6H525.3z"/>
			</g>
			
				<linearGradient id="SVGID_4_" gradientUnits="userSpaceOnUse" x1="361.1402" y1="240.3832" x2="686.8418" y2="240.3832" gradientTransform="matrix(1 0 0 1 0 5.4)">
				<stop  offset="0" style="stop-color:#E8E7E5"/>
				<stop  offset="1" style="stop-color:#FFFFFF"/>
			</linearGradient>
			<path class="st7" d="M370.5,213.8h307.1c5.5,0,9.9,4.7,9.2,10.3l-4.5,45.3c-0.5,4.7-4.5,8.4-9.2,8.4H376c-4.7,0-8.7-3.5-9.2-8.2
				l-5.5-45.3C360.5,218.7,364.9,213.8,370.5,213.8z"/>
			<path class="st8" d="M516,213.8H370.5c-5.6,0-10,4.9-9.2,10.5l5.5,45.3c0.6,4.7,4.5,8.2,9.2,8.2h140c5.1,0,9.3-4.2,9.3-9.3v-45.3
				C525.3,218,521.1,213.8,516,213.8z"/>
		</g>
	</g>
</g>
</svg>
