<?xml version="1.0" encoding="utf-8"?>
<!-- Generator: Adobe Illustrator 19.0.0, SVG Export Plug-In . SVG Version: 6.00 Build 0)  -->
<svg version="1.1" id="Layer_1" xmlns="http://www.w3.org/2000/svg" xmlns:xlink="http://www.w3.org/1999/xlink" x="0px" y="0px"
	 viewBox="600 -600 2000 2000" style="enable-background:new 600 -600 2000 2000;" xml:space="preserve">
<style type="text/css">
	.st0{fill:#E34E26;}
	.st1{fill:#EF662A;}
	.st2{fill:#FFFFFF;}
	.st3{fill:#EBEBEB;}
</style>
<g id="Logo_artwork">
</g>
<g id="Guides_to_delete">
	<g>
		<polygon class="st0" points="878.3,1200 718.6,-591 2472.3,-591 2312.5,1200.1 1595,1399 		"/>
		<polygon class="st1" points="1595.5,-444.6 1595.5,1246.9 2175.6,1086.1 2312.3,-444.6 		"/>
		<polygon class="st2" points="1045.3,-224.9 1104.5,439.3 1865.9,439.3 1840.3,724.3 1595.2,790.5 1350.5,724.3 1334.2,541.4 
			1113.7,541.4 1145.2,894.1 1595.1,1019 2045.7,894.1 2106.1,219.7 1305.4,219.7 1285.3,-5.3 2125.3,-5.3 2126,-5.3 2145.6,-224.9 
					"/>
		<g>
			<polygon class="st3" points="1595.5,-224.9 1045.3,-224.9 1104.5,439.3 1595.5,439.3 1595.5,219.7 1305.4,219.7 1285.3,-5.3 
				1595.5,-5.3 			"/>
			<polygon class="st3" points="1595.5,790.4 1595.2,790.5 1350.5,724.3 1334.2,541.4 1113.7,541.4 1145.2,894.1 1595.1,1019 
				1595.5,1018.9 			"/>
		</g>
	</g>
</g>
</svg>
