<?xml version="1.0" encoding="utf-8"?>
<!-- Generator: Adobe Illustrator 19.0.0, SVG Export Plug-In . SVG Version: 6.00 Build 0)  -->
<svg version="1.1" id="Layer_1" xmlns="http://www.w3.org/2000/svg" xmlns:xlink="http://www.w3.org/1999/xlink" x="0px" y="0px"
	 viewBox="-328 330.3 141.7 141.7" style="enable-background:new -328 330.3 141.7 141.7;" xml:space="preserve">
<style type="text/css">
	.st0{fill:#E6A329;}
	.st1{fill:#F1BF22;}
	.st2{fill:#FFFFFF;}
	.st3{fill:#EBEBEB;}
</style>
<g id="Layer_1_1_">
	<g id="code_x5F_html5">
	</g>
	<g>
		<polygon class="st0" points="-195.4,331.1 -257,331.1 -257,331.1 -319,331.1 -307.3,456.9 -257,471.1 -257,471.1 -257,471.1 
			-257,471.1 -257,471.1 -206.9,456.9 		"/>
		<polygon class="st1" points="-257,341.4 -257,460.4 -257,460.4 -216.4,448.9 -206.5,341.4 		"/>
		<polygon class="st2" points="-224.6,356.8 -287.3,356.8 -291.5,403.9 -291.5,403.5 -238.6,403.5 -240.3,423.6 -257,428.3 
			-274.3,423.4 -275.3,411.4 -291,411.4 -288.8,435.4 -257,444.4 -225.4,435.4 -221.1,388.3 -277.5,388.3 -276.8,372.4 
			-237.6,372.4 -237.1,381.5 -221.4,381.5 		"/>
		<g>
			<path class="st3" d="M-257,356.8h-30.2l-4.3,47.1l0.1-0.3h34.6v-15.4h-18.6l0.7-15.8h17.5v-15.6H-257z M-275.3,411.4H-291
				l2.3,24.1l31.6,8.9v-16.1l-17.2-4.9L-275.3,411.4z"/>
		</g>
	</g>
</g>
<g id="Layer_2">
</g>
</svg>
