<?xml version="1.0" encoding="utf-8"?>
<!-- Generator: Adobe Illustrator 19.0.0, SVG Export Plug-In . SVG Version: 6.00 Build 0)  -->
<svg version="1.1" id="Layer_1" xmlns="http://www.w3.org/2000/svg" xmlns:xlink="http://www.w3.org/1999/xlink" x="0px" y="0px"
	 viewBox="0 0 2500 2500" style="enable-background:new 0 0 2500 2500;" xml:space="preserve">
<style type="text/css">
	.st0{fill:#F0543F;}
	.st1{fill:#6D6E6E;}
</style>
<g>
	<path class="st0" d="M1546.4,1850.6c-13,0-25.4-6.7-32.4-18.3l-285.5-476.2l-533.4,145.1c-17,4.6-35-3.1-43.2-18.7L28.3,309.4
		c-5.8-10.9-5.9-24-0.2-35c5.6-11,16.3-18.5,28.5-20.2L586.5,183c14.9-2,29.7,5.1,37.4,18l640,1067.3l743.3-202.1l-248.2-349.9
		c-7.3-10.2-9-23.4-4.5-35.2c4.4-11.7,14.4-20.5,26.6-23.4l347.8-82.1c14.2-3.4,29,1.8,38.1,13.1l300.9,375.7
		c7.9,9.9,10.4,23.2,6.4,35.3c-3.9,12.1-13.7,21.4-26,24.7l-317,86.2l276.4,389.6c6.9,9.7,8.8,22,5.2,33.3
		c-3.6,11.3-12.3,20.2-23.5,24.2l-830.5,290.8C1554.8,1849.9,1550.6,1850.6,1546.4,1850.6z M1304.2,1335.5l258.8,431.5l754.1-264.1
		l-263.4-371.3L1304.2,1335.5z M120.4,321.9l583.9,1098.5l483.8-131.6L571.9,261.1L120.4,321.9z M1852.9,718.2l231.9,326.8
		l288.2-78.4l-250-312.2L1852.9,718.2z"/>
</g>
<g>
	<path class="st1" d="M564.4,1958.9H596v339.9h-31.6V1958.9z"/>
	<path class="st1" d="M905.9,2053.6v245.3h-31.1v-42.2c-13.2,16.1-28.1,28.2-44.5,36.3c-16.5,8.1-34.5,12.2-54,12.2
		c-34.7,0-64.4-12.6-88.9-37.8c-24.6-25.2-36.9-55.8-36.9-91.9c0-35.3,12.4-65.5,37.2-90.6c24.8-25.1,54.6-37.6,89.5-37.6
		c20.1,0,38.4,4.3,54.7,12.8c16.3,8.6,30.6,21.4,42.9,38.5v-45.1H905.9z M779.8,2077.7c-17.6,0-33.8,4.3-48.6,12.9
		c-14.9,8.6-26.7,20.8-35.5,36.4c-8.8,15.6-13.2,32.1-13.2,49.5c0,17.3,4.4,33.8,13.3,49.5c8.9,15.8,20.8,28,35.7,36.8
		c14.9,8.8,31,13.2,48.1,13.2c17.3,0,33.6-4.4,49.1-13.1c15.5-8.7,27.4-20.5,35.7-35.4c8.3-14.9,12.5-31.6,12.5-50.2
		c0-28.4-9.3-52.1-28-71.2C830.1,2087.2,807.1,2077.7,779.8,2077.7z"/>
	<path class="st1" d="M965,2053.6h32.2v35.8c9.6-14.1,19.8-24.7,30.4-31.7c10.7-7,21.8-10.5,33.4-10.5c8.7,0,18,2.8,28,8.3
		l-16.5,26.6c-6.6-2.9-12.2-4.3-16.7-4.3c-10.5,0-20.7,4.3-30.4,13c-9.8,8.6-17.2,22.1-22.3,40.2c-3.9,14-5.9,42.2-5.9,84.8v83H965
		V2053.6z"/>
	<path class="st1" d="M1360.2,2053.6v245.3h-31.1v-42.2c-13.2,16.1-28.1,28.2-44.5,36.3c-16.5,8.1-34.5,12.2-54,12.2
		c-34.7,0-64.4-12.6-88.9-37.8c-24.6-25.2-36.9-55.8-36.9-91.9c0-35.3,12.4-65.5,37.2-90.6c24.8-25.1,54.6-37.6,89.5-37.6
		c20.1,0,38.4,4.3,54.7,12.8c16.3,8.6,30.6,21.4,42.9,38.5v-45.1H1360.2z M1234,2077.7c-17.6,0-33.8,4.3-48.6,12.9
		c-14.9,8.6-26.7,20.8-35.5,36.4c-8.8,15.6-13.2,32.1-13.2,49.5c0,17.3,4.4,33.8,13.3,49.5c8.9,15.8,20.8,28,35.7,36.8
		c14.9,8.8,31,13.2,48.1,13.2c17.3,0,33.6-4.4,49.1-13.1c15.5-8.7,27.4-20.5,35.7-35.4c8.3-14.9,12.5-31.6,12.5-50.2
		c0-28.4-9.3-52.1-28-71.2C1284.4,2087.2,1261.4,2077.7,1234,2077.7z"/>
	<path class="st1" d="M1408,2053.6h33.6l82.3,178.8l81.3-178.8h33.8l-112.3,245.3h-5.9L1408,2053.6z"/>
	<path class="st1" d="M1893.5,2217.5l26.6,14c-8.7,17.1-18.8,31-30.2,41.5c-11.4,10.5-24.3,18.5-38.6,24
		c-14.3,5.5-30.5,8.2-48.5,8.2c-40,0-71.3-13.1-93.9-39.3c-22.6-26.2-33.8-55.9-33.8-88.9c0-31.1,9.6-58.8,28.7-83.2
		c24.2-31,56.6-46.4,97.2-46.4c41.8,0,75.2,15.9,100.2,47.6c17.7,22.4,26.8,50.3,27.1,83.9h-220.7c0.6,28.5,9.7,51.8,27.3,70.1
		s39.4,27.3,65.2,27.3c12.5,0,24.6-2.2,36.5-6.5c11.8-4.3,21.9-10.1,30.1-17.3C1874.9,2245.1,1883.9,2233.5,1893.5,2217.5z
		 M1893.5,2151.4c-4.2-16.8-10.3-30.3-18.4-40.4c-8.1-10.1-18.7-18.2-31.9-24.3c-13.2-6.2-27.2-9.2-41.8-9.2
		c-24.1,0-44.8,7.7-62.1,23.2c-12.6,11.3-22.2,28.2-28.7,50.7H1893.5z"/>
	<path class="st1" d="M1982.3,1958.9h31.6v339.9h-31.6V1958.9z"/>
</g>
</svg>
