<?xml version="1.0" encoding="utf-8"?>
<!-- Generator: Adobe Illustrator 19.0.0, SVG Export Plug-In . SVG Version: 6.00 Build 0)  -->
<svg version="1.1" id="Layer_1" xmlns="http://www.w3.org/2000/svg" xmlns:xlink="http://www.w3.org/1999/xlink" x="0px" y="0px"
	 viewBox="0 0 792 792" style="enable-background:new 0 0 792 792;" xml:space="preserve">
<style type="text/css">
	.st0{display:none;}
</style>
<g id="Layer_1_1_" class="st0">
	
		<image style="display:inline;overflow:visible;enable-background:new    ;" width="1920" height="1562" id="XMLID_1_" xlink:href="71C3082.jpeg"  transform="matrix(0.415 0 0 0.415 -3.883 69)">
	</image>
</g>
<g id="Layer_2" class="st0">
</g>
<g id="Layer_3">
	<path id="XMLID_24_" d="M41.1,549.2c2.1-5.2,149.1-369.1,149.1-369.1s30.1-72.2,86.9-79.7c42.3,0,128.5,0,128.5,0L432,281.6
		l144.3-140.2L464.2,418.9l-118.9,109l-38.5-214.8L154.9,689h-42.5C112.4,689-16.7,689.1,41.1,549.2z"/>
	<path id="XMLID_23_" d="M625.7,100.5h52.2c0,0,123.4-9.6,81.4,94.5S617.1,547,617.1,547h94.1l-21,52c0,0-45.6,90.1-130.5,90.1
		s-171.8,0-171.8,0L625.7,100.5z"/>
</g>
</svg>
