<?xml version="1.0" encoding="utf-8"?>
<!-- Generator: Adobe Illustrator 19.0.0, SVG Export Plug-In . SVG Version: 6.00 Build 0)  -->
<svg version="1.1" id="Layer_1" xmlns="http://www.w3.org/2000/svg" xmlns:xlink="http://www.w3.org/1999/xlink" x="0px" y="0px"
	 viewBox="-262 5 956 792" style="enable-background:new -262 5 956 792;" xml:space="preserve">
<style type="text/css">
	.st0{fill:none;}
	.st1{fill:#00678F;}
	.st2{fill:#E38D1A;}
</style>
<g>
	<polygon class="st0" points="-304.1,-114.1 734,-114.1 734,911 -304.1,911 	"/>
	<path class="st1" d="M-258.3,567.6h31.2V445.3l49.1,106.4c5.3,12.9,13.5,17.6,29,17.6s22.6-4.7,28.6-17.6L-72,445.3v122.3h31.2
		V445.3c0-11.8-4.9-17.6-15.1-20.7c-23.7-7.1-39.9-1.1-46.8,14.9l-47.9,105.3l-46.3-105.3c-7.1-15.9-23.2-21.8-46.8-14.9
		c-9.7,3.3-14.4,9.1-14.4,20.7v122.3L-258.3,567.6L-258.3,567.6z"/>
	<path class="st1" d="M-15,468.1h31.2v66.9c0,3.8,1.1,12.2,18.4,12.9c9.1,0,68,0,68.4,0v-80.4h31.2c0,0,0,109.6,0,110
		c0,27.2-33.9,33-49.6,33h-99v-20.7h99c19.9-2,17.7-12.2,17.7-15.4v-8H35.7c-31.2,0-51.2-13.8-51.2-29.2
		C-15,536.2-14.6,468.5-15,468.1L-15,468.1z"/>
	<path class="st1" d="M660.2,390.5c-19.3-0.5-33.9,1.6-46.8,6.3c-3.8,1.6-9.1,1.6-9.7,5.8c2,2,2,4.7,3.8,7.5
		c2.8,4.7,8.2,11.1,12.4,14.3c4.9,3.8,10.2,7.5,15.5,11.1c9.1,5.8,19.9,9.1,29,14.9c5.3,3.3,10.7,7.5,15.5,11.1
		c2.8,2,4.4,4.7,7.5,6.3v-0.6c-1.6-2-2-5.3-3.8-7.5c-2-2-4.9-4.2-7.1-7.1c-7.1-9.1-15.5-17.6-24.6-23.9
		c-7.5-5.3-24.6-12.2-27.5-21.3c0,0,0,0-0.5-0.5c5.3-0.5,11.3-2,16.8-3.8c8.2-2,15.5-1.6,24.2-3.8c3.8-1.1,7.5-2,11.3-3.3
		c0-0.5,0-1.6,0-2c-4.4-4.2-7.5-10-11.9-13.8c-12.4-10.5-25.9-20.7-39.9-29.2c-7.5-4.7-17.3-8-24.6-11.8c-2.8-1.6-7.5-2-9.1-4.2
		c-4.4-5.3-6.4-12.2-9.7-18.1c-7.1-13.3-13.5-27.6-19.9-41.4c-4.4-9.1-7.1-18.7-12.4-27.2c-24.6-40.5-51.6-64.8-93.1-88.8
		c-9.1-4.7-19.3-7.1-30.8-9.6c-5.8,0-11.9-0.5-17.7-1.1c-3.8-1.6-7.5-6.3-11.3-8.5c-13.5-8.5-49.1-27.2-59.3-2.7
		c-6.4,15.4,9.7,30.9,15.1,38.3c4.4,5.3,9.1,11.8,12.4,17.6c1.6,4.2,2,8.5,3.8,12.9c3.8,10.5,7.5,21.8,12.4,31.9
		c2.8,4.7,5.3,10,9.1,14.9c2,2.7,5.3,3.8,5.8,8c-3.3,4.7-3.8,11.8-5.3,17.6c-8.6,26.7-5.3,60.1,7.1,79.7c3.8,5.8,13,19.1,25.3,13.8
		c10.7-4.2,8.6-17.6,11.3-29.7c0.5-2.7,0-4.7,1.6-6.3v0.5c3.3,6.3,6.4,13.3,9.7,19.6c7.5,11.8,20.4,23.9,31.2,31.9
		c5.8,4.2,10.2,11.8,17.7,14.3v-0.5c0,0,0,0-0.5,0c-1.6-2-3.8-3.3-5.3-4.7c-4.4-4.2-9.1-9.6-12.4-14.3c-10.2-13.3-18.8-28.1-27-43
		c-3.8-7.5-7.1-15.4-10.2-22.9c-1.6-2.7-1.6-7.1-3.8-8.5c-3.8,5.3-9.1,9.6-11.3,15.9c-4.4,10-4.9,22.9-6.4,35.6
		c-1.1,0-0.5,0-1.1,0.5c-7.5-2-10.2-9.6-13.5-16.5c-7.1-17.1-8.6-44.3-2-63.3c1.6-4.7,9.1-20.7,5.8-25.4c-1.6-4.2-6.4-7.1-9.1-10.5
		c-3.3-4.2-6.4-10-8.6-15.4c-5.8-13.3-8.6-28.1-15.1-41.4c-2.8-6.3-8.2-12.9-11.9-18.1c-4.4-6.3-9.7-11.1-13.5-18.7
		c-1.1-2.7-2.8-7.1-1.1-9.6c0.5-2,1.6-2.7,3.3-3.3c3.3-2.7,11.9,0.5,15.1,2c9.1,3.8,16,7.1,23.7,11.8c3.3,2,7.1,7.1,11.3,8
		c1.6,0,3.3,0,4.9,0c7.5,1.6,16,0.5,23.7,2.7c13,4.2,24.2,10,34.4,16.5c31.2,19.6,57.6,47.9,74.9,81.5c2.8,5.3,4.4,10.5,6.4,15.9
		c4.9,11.8,11.3,23.4,16,35.2c4.9,11.1,9.7,22.3,17.3,31.9c3.8,4.7,17.7,7.5,24.6,10c4.9,2,12.4,4.2,16.8,6.3
		c8.2,4.7,16,10.5,24.2,15.9C647.2,379.7,659,385.6,660.2,390.5L660.2,390.5z"/>
	<path class="st1" d="M415.2,184.1c-4.4,0-7.1,0.5-9.7,1.1c0,0,0,0,0,0.5c0,0,0,0,0.5,0c2,3.8,5.3,6.3,7.5,9.6
		c2,3.8,3.8,7.5,5.3,11.1l0.5-0.5c3.3-2,4.9-6.3,4.9-11.8c-1.6-1.6-1.6-3.3-2.8-4.7C420.1,187.4,416.8,186.3,415.2,184.1
		L415.2,184.1z"/>
	<path class="st2" d="M158.4,567.6h90.4c10.7,0,20.4-2,29-5.8c13.5-6.3,19.9-14.3,19.9-25.4v-22.9c0-9.1-7.5-17.1-22.1-22.9
		c-7.5-2.7-17.3-4.2-27-4.2H211c-13,0-18.8-3.8-20.4-12.2c0-1.1,0-2,0-2.7v-13.8c0-0.5,0-1.6,0-2.7c1.6-6.3,4.9-8,16-9.1
		c1.1,0,2,0,2.8,0h89.3V425H211c-13,0-19.3,0.5-25.3,2.7c-18.4,5.8-27,14.9-27,30.9v18.1c0,13.8,15.5,26.1,42.5,28.7
		c2.8,0,5.8,0,9.1,0h32.3c1.1,0,2,0,3.3,0c9.7,1.1,14,2.7,17.3,6.3c2,2,2,3.8,2,5.8v18.1c0,2-1.6,4.7-4.4,7.5
		c-2.8,2.8-7.5,4.2-13.5,4.2c-1.1,0-2,0-3.3,0h-86.8v20.1h0.8v0.2L158.4,567.6L158.4,567.6z"/>
	<path class="st2" d="M493.4,531.8c0,21.3,16,33,48.3,35.2c3.3,0,5.8,0.5,9.1,0.5h81.9v-20.7h-82.4c-18.4,0-25.3-4.2-25.3-15.4v-107
		h-31.2v107.4h-0.5V531.8L493.4,531.8z"/>
	<path class="st2" d="M317.7,532.9v-73.5c0-18.7,13.5-30.5,39.9-33.4c2.8,0,5.8-0.5,8.6-0.5H426c3.3,0,5.8,0,9.1,0.5
		c26.4,3.8,39.2,14.9,39.2,33.4v73.5c0,15.4-5.3,23.4-18.4,28.7l30.8,27.6h-37l-24.8-22.1l-25.3,1.6h-33.3c-5.3,0-11.9-0.5-18.4-2
		C327.5,560,317.7,550,317.7,532.9L317.7,532.9z M351.6,530.8c0,1.1,0.5,2,0.5,3.3c1.6,8.5,9.7,13.3,22.1,13.3h28.6l-25.7-23.5h36.1
		l22.6,20.1c4.4-2,7.1-5.8,8.2-10c0-1.1,0-2,0-3.3V460c0-1.1,0-2,0-2.7c-1.6-8-9.7-12.9-22.1-12.9h-47.4c-14,0-23.2,5.8-23.2,15.4
		v70.6h0.5V530.8z"/>
	<path class="st2" d="M646.7,568h4.4v-17.6h5.8v-3.8h-16.8v3.8h6.4V568H646.7z M681.7,568h4.4v-20.7h-6.4l-5.3,14.3l-5.8-14.3h-6.4
		V568h4.4v-15.9l0,0l5.8,15.9h3.3l5.8-15.9l0,0V568H681.7z"/>
</g>
</svg>
